<?xml version="1.0" standalone="no"?><!DOCTYPE svg PUBLIC "-//W3C//DTD SVG 1.1//EN" "http://www.w3.org/Graphics/SVG/1.1/DTD/svg11.dtd">
<svg class="icon" width="16px" height="14.00px" viewBox="0 0 1024 1024" version="1.1" xmlns="http://www.w3.org/2000/svg">
	<path fill="#fff" d="M835.413333 523.52c-1.706667-26.453333-10.666667-46.506667-26.453333-60.16-15.786667-13.653333-35.413333-20.48-58.88-20.48-24.746667 0-46.08 7.253333-59.306667 21.76-14.08 14.506667-23.04 34.133333-26.453333 58.88m270.933333-9.813333c3.413333 17.493333 3.413333 42.666667 3.413334 75.52h-277.333334c2.133333 38.4 14.933333 64.853333 40.106667 80.213333 14.933333 9.813333 33.28 14.506667 55.04 14.506667 22.613333 0 40.96-5.973333 54.186667-17.493334 8.533333-6.4 15.36-14.933333 21.333333-26.453333h101.546667c-2.56 23.04-14.933333 45.653333-37.546667 69.12-33.28 37.546667-81.066667 55.466667-142.506667 55.466667-50.773333 0-95.146667-15.786667-134.826666-46.933334-37.546667-31.146667-57.173333-81.92-57.173334-152.32 0-66.133333 17.493333-117.333333 52.48-151.466666 34.986667-35.413333 80.213333-52.906667 136.106667-52.906667 32.853333 0 62.72 5.973333 89.173333 17.92 26.453333 11.946667 48.64 30.293333 65.706667 56.32 15.786667 22.613333 25.6 48.64 30.293333 78.506667M408.746667 600.32c0-27.733333-11.52-46.933333-33.706667-57.173333-12.373333-5.546667-30.293333-8.533333-53.333333-9.813334H207.786667v142.506667H320c23.04 0 40.96-2.986667 53.76-9.386667 23.466667-11.52 34.986667-33.706667 34.986667-66.133333m-200.96-154.026667H320c23.04 0 42.666667-4.266667 56.32-13.226666 14.506667-8.533333 21.333333-24.32 21.333333-46.506667 0-23.893333-9.386667-40.96-28.16-49.066667-16.64-5.546667-37.546667-8.106667-62.72-8.106666H207.786667m292.266666 200.533333c13.653333 21.333333 20.48 47.36 20.48 77.653333 0 32.426667-8.533333 59.733333-23.466666 84.906667a153.6 153.6 0 0 1-37.546667 41.813333c-17.066667 12.373333-37.12 21.76-60.16 26.453334-23.04 4.693333-47.786667 7.253333-74.666667 7.253333H85.333333V236.8h256c65.28 1.28 110.933333 19.2 137.813334 56.746667 16.213333 22.613333 24.32 49.493333 24.32 81.066666 0 32.426667-8.106667 58.453333-24.32 78.08-9.813333 11.093333-22.613333 21.333333-40.533334 30.293334 26.88 9.813333 47.36 25.6 61.44 46.933333m355.84-217.6h-213.76V258.986667h213.76v53.333333z"  />
</svg>