<?xml version="1.0" standalone="no"?><!DOCTYPE svg PUBLIC "-//W3C//DTD SVG 1.1//EN" "http://www.w3.org/Graphics/SVG/1.1/DTD/svg11.dtd">
<svg class="icon" width="16px" height="14.00px" viewBox="0 0 1024 1024" version="1.1" xmlns="http://www.w3.org/2000/svg">
	<path fill="#fff" d="M512 85.333333C280.704 85.333333 85.333333 280.704 85.333333 512s195.370667 426.666667 426.666667 426.666667 426.666667-195.370667 426.666667-426.666667S743.296 85.333333 512 85.333333z m0 85.333334c61.141333 0 118.954667 17.322667 169.216 46.848a573.738667 573.738667 0 0 1-141.226667 124.032 2170.837333 2170.837333 0 0 0-98.730666-163.029334A326.784 326.784 0 0 1 512 170.666667z m-153.429333 38.101333a2102.229333 2102.229333 0 0 1 105.386666 172.458667C396.032 410.24 322.901333 426.666667 248.021333 426.666667c-20.693333 0-42.24-1.92-64.384-4.693334 26.197333-92.074667 90.922667-169.6 174.933334-213.205333zM170.666667 512c0-1.92 0.256-3.84 0.298666-5.76 26.368 3.413333 52.096 5.76 77.056 5.76 88.917333 0 175.488-20.010667 255.658667-55.253333 7.253333 14.592 14.506667 29.653333 21.674667 45.013333-107.989333 40.874667-201.770667 119.509333-272.426667 229.418667C201.941333 671.36 170.666667 594.645333 170.666667 512z m341.333333 341.333333c-72.021333 0-139.52-23.893333-195.285333-63.701333 45.824-75.136 123.392-166.656 242.645333-209.92 32.384 78.976 59.861333 163.968 75.562667 249.514667A331.392 331.392 0 0 1 512 853.333333z m201.557333-68.437333c-16.469333-77.909333-41.6-154.197333-70.186666-225.706667 19.413333-2.645333 39.424-4.522667 60.629333-4.522666 47.701333 0 95.530667 7.978667 142.634667 22.826666-17.066667 83.754667-66.048 157.312-133.077334 207.402667zM704 469.333333c-32.426667 0-64.085333 3.285333-94.976 9.130667a2132.138667 2132.138667 0 0 0-29.354667-61.354667 660.096 660.096 0 0 0 169.344-147.925333c58.794667 57.472 97.322667 135.296 103.168 220.586667A553.6 553.6 0 0 0 704 469.333333z"  />
</svg>